<?xml version="1.0" encoding="UTF-8" standalone="no"?>
<!DOCTYPE svg PUBLIC "-//W3C//DTD SVG 1.1//EN" "http://www.w3.org/Graphics/SVG/1.1/DTD/svg11.dtd">
<svg width="100%" height="100%" viewBox="0 0 512 512" version="1.1" xmlns="http://www.w3.org/2000/svg" xmlns:xlink="http://www.w3.org/1999/xlink" xml:space="preserve" xmlns:serif="http://www.serif.com/" style="fill-rule:evenodd;clip-rule:evenodd;stroke-linejoin:round;stroke-miterlimit:2;">
    <path d="M218.668,240L16,240C7.168,240 0,232.832 0,224C0,215.168 7.168,208 16,208L218.668,208C227.5,208 234.668,215.168 234.668,224C234.668,232.832 227.5,240 218.668,240Z" style="fill:rgb(172,200,55);fill-rule:nonzero;"/>
    <path d="M138.668,320C134.57,320 130.477,318.441 127.359,315.309C121.109,309.055 121.109,298.922 127.359,292.672L196.055,223.98L127.359,155.309C121.109,149.055 121.109,138.922 127.359,132.672C133.609,126.422 143.742,126.422 149.996,132.672L229.996,212.672C236.246,218.922 236.246,229.055 229.996,235.309L149.996,315.309C146.859,318.441 142.762,320 138.668,320Z" style="fill:rgb(172,200,55);fill-rule:nonzero;"/>
    <path d="M341.332,512C317.801,512 298.668,492.863 298.668,469.332L298.668,85.332C298.668,67.094 310.273,50.816 327.551,44.82L455.723,2.09C484.395,-6.699 512,14.57 512,42.668L512,426.668C512,444.887 500.395,461.141 483.137,467.156L354.922,509.91C350.25,511.359 345.922,512 341.332,512ZM469.332,32C467.945,32 466.773,32.172 465.516,32.555L337.879,75.113C333.695,76.566 330.668,80.789 330.668,85.332L330.668,469.332C330.668,476.609 338.559,481.516 345.152,479.445L472.789,436.887C476.949,435.434 480,431.211 480,426.668L480,42.668C480,36.801 475.223,32 469.332,32Z" style="fill:rgb(172,200,55);fill-rule:nonzero;"/>
    <path d="M186.668,106.668C177.836,106.668 170.668,99.5 170.668,90.668L170.668,58.668C170.668,26.305 196.969,0 229.332,0L469.332,0C478.164,0 485.332,7.168 485.332,16C485.332,24.832 478.164,32 469.332,32L229.332,32C214.633,32 202.668,43.969 202.668,58.668L202.668,90.668C202.668,99.5 195.5,106.668 186.668,106.668Z" style="fill:rgb(172,200,55);fill-rule:nonzero;"/>
    <path d="M314.668,448L229.332,448C196.969,448 170.668,421.695 170.668,389.332L170.668,357.332C170.668,348.5 177.836,341.332 186.668,341.332C195.5,341.332 202.668,348.5 202.668,357.332L202.668,389.332C202.668,404.031 214.633,416 229.332,416L314.668,416C323.5,416 330.668,423.168 330.668,432C330.668,440.832 323.5,448 314.668,448Z" style="fill:rgb(172,200,55);fill-rule:nonzero;stroke:rgb(172,200,55);stroke-width:1px;"/>
</svg>
