<?xml version="1.0" encoding="UTF-8" standalone="no"?>
<!DOCTYPE svg PUBLIC "-//W3C//DTD SVG 1.1//EN" "http://www.w3.org/Graphics/SVG/1.1/DTD/svg11.dtd">
<svg width="100%" height="100%" viewBox="0 0 123 123" version="1.1" xmlns="http://www.w3.org/2000/svg" xmlns:xlink="http://www.w3.org/1999/xlink" xml:space="preserve" xmlns:serif="http://www.serif.com/" style="fill-rule:evenodd;clip-rule:evenodd;stroke-linejoin:round;stroke-miterlimit:2;">
    <g>
        <path d="M86,28.175L86,7.374C86,4.074 83.301,1.374 80,1.374L6,1.374C2.7,1.374 0,4.074 0,7.374L0,92.175C0,94.374 1.3,96.474 3.2,97.474L48.8,121.075C50.8,122.075 53.2,120.676 53.2,118.375L53.2,95.375L80,95.375C83.301,95.375 86,92.676 86,89.375L86,56.575L74,56.575L74,80.375C74,82.075 72.7,83.375 71,83.375L53.3,83.375L53.3,32.475C53.3,30.275 52,28.175 50.1,27.175L23.2,13.375L71,13.375C72.7,13.375 74,14.675 74,16.375L74,28.175L86,28.175Z" style="fill:rgb(240,88,30);fill-rule:nonzero;"/>
        <path d="M101.4,18.273L120.9,37.773C123.4,40.273 123.4,43.973 120.9,46.473L101.4,65.973C98.9,68.473 95.099,68.574 92.599,66.074C90.2,63.675 90.499,59.674 92.8,57.274L101.599,48.574L67.5,48.574C65.801,48.574 64.1,47.874 63,46.574C60.2,43.574 60.9,38.274 64.5,36.274C65.4,35.774 66.5,35.474 67.5,35.474L101.6,35.474C101.6,35.474 92.901,26.774 92.801,26.774C90.5,24.474 90.2,20.374 92.6,18.074C95,15.674 98.9,15.773 101.4,18.273Z" style="fill:rgb(240,88,30);fill-rule:nonzero;"/>
    </g>
</svg>
