<?xml version="1.0" encoding="UTF-8" standalone="no"?>
<!DOCTYPE svg PUBLIC "-//W3C//DTD SVG 1.1//EN" "http://www.w3.org/Graphics/SVG/1.1/DTD/svg11.dtd">
<svg width="100%" height="100%" viewBox="0 0 54 54" version="1.1" xmlns="http://www.w3.org/2000/svg" xmlns:xlink="http://www.w3.org/1999/xlink" xml:space="preserve" xmlns:serif="http://www.serif.com/" style="fill-rule:evenodd;clip-rule:evenodd;stroke-linejoin:round;stroke-miterlimit:2;">
    <g>
        <g>
            <path d="M24.999,43.856C27.874,43.856 30.207,41.525 30.207,38.647L30.207,32.726C34.486,30.046 37.462,24.188 37.462,17.372C37.462,8.027 36.197,0.452 24.999,0.452C14.282,0.452 12.536,8.027 12.536,17.372C12.536,24.187 15.512,30.047 19.791,32.726L19.791,38.647C19.791,41.523 22.122,43.856 24.999,43.856Z" style="fill:rgb(172,200,55);fill-rule:nonzero;"/>
            <path d="M33.412,41.815C33.412,39.33 34.582,37.118 36.395,35.686C36.349,35.669 36.295,35.651 36.249,35.635L32.672,34.53C32.401,34.445 32.091,34.366 31.771,34.289L31.771,38.646C31.771,42.386 28.741,45.418 25.001,45.418C21.262,45.418 18.23,42.388 18.23,38.647L18.23,34.288C17.908,34.365 17.601,34.444 17.329,34.529L13.751,35.634C12.102,36.145 9.619,37.36 8.206,38.35L2.56,42.307C1.146,43.297 0,45.444 0,47.101C0,48.756 1.399,50.101 3.125,50.101L34.353,50.101C33.752,48.995 33.411,47.729 33.411,46.384L33.412,41.815Z" style="fill:rgb(172,200,55);fill-rule:nonzero;"/>
            <path d="M46.836,35.565L41.282,35.565C37.829,35.565 35.032,38.364 35.032,41.815L35.032,46.383C35.032,49.835 37.829,52.633 41.282,52.633L46.836,52.633C50.288,52.633 53.086,49.835 53.086,46.383L53.086,41.815C53.086,38.364 50.289,35.565 46.836,35.565ZM49.181,41.086L43.901,49.08C43.702,49.383 43.369,49.548 43.03,49.548C42.845,49.548 42.659,49.499 42.489,49.397L38.496,46.964C38.005,46.665 37.85,46.025 38.148,45.531C38.447,45.043 39.086,44.885 39.581,45.183L42.716,47.093L47.445,39.938C47.763,39.457 48.411,39.324 48.888,39.643C49.368,39.961 49.498,40.607 49.181,41.086Z" style="fill:rgb(172,200,55);fill-rule:nonzero;"/>
        </g>
    </g>
</svg>
